<svg width="44" height="44" viewBox="0 0 44 44" fill="none" xmlns="http://www.w3.org/2000/svg">
    <g clip-path="url(#clip0_4_77)">
        <path d="M33 7.33333H11C8.97494 7.33333 7.33331 8.97495 7.33331 11V33C7.33331 35.025 8.97494 36.6667 11 36.6667H33C35.025 36.6667 36.6666 35.025 36.6666 33V11C36.6666 8.97495 35.025 7.33333 33 7.33333Z"
              stroke="white" stroke-width="2.75" stroke-linecap="round" stroke-linejoin="round"/>
        <path d="M14.6667 20.1667V29.3333" stroke="white" stroke-width="2.75" stroke-linecap="round"
              stroke-linejoin="round"/>
        <path d="M14.6667 14.6667V14.685" stroke="white" stroke-width="2.75" stroke-linecap="round"
              stroke-linejoin="round"/>
        <path d="M22 29.3333V20.1667" stroke="white" stroke-width="2.75" stroke-linecap="round"
              stroke-linejoin="round"/>
        <path d="M29.3333 29.3333V23.8333C29.3333 22.8609 28.947 21.9282 28.2594 21.2406C27.5718 20.553 26.6391 20.1667 25.6667 20.1667C24.6942 20.1667 23.7616 20.553 23.0739 21.2406C22.3863 21.9282 22 22.8609 22 23.8333"
              stroke="white" stroke-width="2.75" stroke-linecap="round" stroke-linejoin="round"/>
    </g>
    <defs>
        <clipPath id="clip0_4_77">
            <rect width="44" height="44" fill="white"/>
        </clipPath>
    </defs>
</svg>
