<svg width="40" height="33" viewBox="0 0 40 33" fill="none" xmlns="http://www.w3.org/2000/svg">
    <path d="M38.3334 2.35166C36.5 3.24999 34.7034 3.61483 32.8334 4.16666C30.7782 1.84749 27.7312 1.71916 24.8034 2.81549C21.8755 3.91183 19.9579 6.59216 20 9.66666V11.5C14.0509 11.6522 8.75252 8.94249 5.33335 4.16666C5.33335 4.16666 -2.33365 17.7938 12.6667 24.3333C9.23469 26.6195 5.81185 28.1613 1.66669 28C7.73135 31.3055 14.3405 32.4422 20.0624 30.7812C26.6257 28.8745 32.0194 23.9557 34.0892 16.5875C34.7066 14.3466 35.0132 12.0314 35.0004 9.70699C34.9967 9.25049 37.7687 4.62499 38.3334 2.34983V2.35166Z"
          stroke="white" stroke-width="2.75" stroke-linecap="round" stroke-linejoin="round"/>
</svg>
